<svg width="36" height="36" viewBox="0 0 36 36" fill="none" xmlns="http://www.w3.org/2000/svg"><path d="M15.165 27.224H9.48c-.615 0-1.125-.51-1.125-1.125v-7.68a2.842 2.842 0 012.835-2.835h3.976c.614 0 1.125.51 1.125 1.125v9.375c0 .63-.51 1.14-1.126 1.14zm-4.56-2.25h3.435V17.85h-2.85a.586.586 0 00-.585.585v6.54zM26.81 27.45h-5.685c-.615 0-1.125-.51-1.125-1.125v-14.49A2.842 2.842 0 0122.835 9h2.28a2.842 2.842 0 012.835 2.835v14.49a1.146 1.146 0 01-1.14 1.125zm-4.545-2.25H25.7V11.835a.586.586 0 00-.585-.585h-2.28a.586.586 0 00-.585.585V25.2h.015z" fill="#764CC2"/><path d="M20.866 27h-5.732c-.62 0-1.134-.506-1.134-1.116v-6.768c0-.61.514-1.116 1.134-1.116h4.008C20.715 18 22 19.264 22 20.811v5.073c0 .61-.5 1.116-1.134 1.116zm-4.598-2.231h3.464v-3.957a.586.586 0 00-.59-.58h-2.874v4.537z" fill="#764CC2"/><path d="M22.5 34.125h-9c-8.145 0-11.625-3.48-11.625-11.625v-9c0-8.145 3.48-11.625 11.625-11.625h9c8.145 0 11.625 3.48 11.625 11.625v9c0 8.145-3.48 11.625-11.625 11.625zm-9-30c-6.915 0-9.375 2.46-9.375 9.375v9c0 6.915 2.46 9.375 9.375 9.375h9c6.915 0 9.375-2.46 9.375-9.375v-9c0-6.915-2.46-9.375-9.375-9.375h-9z" fill="#764CC2"/></svg>